# xmcd
#
# Track frame offsets:
#	150
#	11263
#	19919
#	34007
#	46378
#	56745
#	71756
#	84524
#	94908
#	105957
#	119078
#
# Disc length: 1757 seconds
#
# Revision: 2
# Processed by: cddbd v1.5.2PL0 Copyright (c) Steve Scherf et al.
# Submitted via: audiograbber 1.83.01
#
DISCID=8b06db0b
DTITLE=Various Country - Grand Ole' Country
DYEAR=1900
DGENRE=Country
TTITLE0=Tex Ritter - High Noon (Do Not Forsake Me)
TTITLE1=Burl Ives - On Top Of Old Smokey
TTITLE2=Carter Family - Can The Circle Be Unbroken
TTITLE3=Elton Britt - There's A Star Spangled Banner Waving Somewhere
TTITLE4=Faron Young - Live Fast, Love Hard, Die Young
TTITLE5=Gene Autry - Tumbling Tumbleweeds
TTITLE6=Roy Rogers - Don't Fence Me In
TTITLE7=Hank Snow - The Gold Rush Is Over
TTITLE8=Hank Thompson - Honky Tonk Girls
TTITLE9=Hank Williams - Jambalaya
TTITLE10=Merle Travis - Sixteen Tons
EXTD=
EXTT0=
EXTT1=
EXTT2=
EXTT3=
EXTT4=
EXTT5=
EXTT6=
EXTT7=
EXTT8=
EXTT9=
EXTT10=
PLAYORDER=
